# File created by Blade
# Date/Time:  Wed Jan 28 16:58:26 2015
#---------------------------------------------------------
:version 1.10
:name HOM
:units
  mass 1.0
  length 1.000000
  angle deg
:documentation
     Acclaim Skeleton File
:root
   axis xyz
   order TX TY TZ RX RY RZ
   position 0.000000 0.000000 0.000000
   orientation 0 0 0
:bonedata
   begin
      id 1
      name Spine_dum
      direction 0.000000 1.000000 0.000000
      length 9.621153
      axis 0.0 0.0 0.0 xyz
   end
   begin
      id 2
      name LeftUpLeg_dum
      direction 1.000000 0.000000 0.000000
      length 2.700595
      axis 0.0 0.0 0.0 xyz
   end
   begin
      id 3
      name RightUpLeg_dum
      direction -1.000000 0.000000 0.000000
      length 2.700595
      axis 0.0 0.0 0.0 xyz
   end
   begin
      id 4
      name Spine
      direction 0.000000 1.000000 0.000000
      length 0.000000
      axis 0.0 0.0 0.0 xyz
      dof rx ry rz
   end
   begin
      id 5
      name Spine_dum1
      direction 0.000000 1.000000 0.000000
      length 12.771951
      axis 0.0 0.0 0.0 xyz
   end
   begin
      id 6
      name Spine_dum2
      direction 0.000000 1.000000 0.000000
      length 7.400569
      axis 0.0 0.0 0.0 xyz
   end
   begin
      id 7
      name Spine_dum3
      direction 0.000000 1.000000 0.000000
      length 7.400569
      axis 0.0 0.0 0.0 xyz
   end
   begin
      id 8
      name Head
      direction 0.000000 1.000000 0.000000
      length 4.527550
      axis 0.0 0.0 0.0 xyz
      dof rx ry rz
   end
   begin
      id 9
      name LeftShoulder
      direction 1.000000 0.000000 0.000000
      length 8.349299
      axis 0.0 0.0 -90.0 xyz
      dof rx ry rz
   end
   begin
      id 10
      name LeftArm
      direction 1.000000 0.000000 0.000000
      length 11.334839
      axis 0.0 0.0 -90.0 xyz
      dof rx ry rz
   end
   begin
      id 11
      name LeftForeArm
      direction 1.000000 0.000000 0.000000
      length 9.694182
      axis 0.0 0.0 -90.0 xyz
      dof ry rz rx
   end
   begin
      id 12
      name LeftHand
      direction 0.000000 0.000000 0.000000
      length 0.000000
      axis 0.0 0.0 -90.0 xyz
      dof rx ry rz
   end
   begin
      id 13
      name LeftHand_dum1
      direction 0.000000 0.000000 0.000000
      length 0.000000
      axis 0.0 0.0 -90.0 xyz
   end
   begin
      id 14
      name LeftHand_dum2
      direction 1.000000 0.000000 0.000000
      length 3.937000
      axis 0.0 0.0 -90.0 xyz
   end
   begin
      id 15
      name LeftHandThumb1
      direction 0.000000 0.000000 1.000000
      length 3.937000
      axis 0.0 0.0 -90.0 xyz
      dof rx rz ry
   end
   begin
      id 16
      name RightShoulder
      direction -1.000000 0.000000 0.000000
      length 8.349299
      axis 0.0 0.0 90.0 xyz
      dof rx ry rz
   end
   begin
      id 17
      name RightArm
      direction -1.000000 0.000000 0.000000
      length 11.334839
      axis 0.0 0.0 90.0 xyz
      dof rx ry rz
   end
   begin
      id 18
      name RightForeArm
      direction -1.000000 0.000000 0.000000
      length 9.694182
      axis 0.0 0.0 90.0 xyz
      dof ry rz rx
   end
   begin
      id 19
      name RightHand
      direction 0.000000 0.000000 0.000000
      length 0.000000
      axis 0.0 0.0 90.0 xyz
      dof rx ry rz
   end
   begin
      id 20
      name RightHand_dum1
      direction 0.000000 0.000000 0.000000
      length 0.000000
      axis 0.0 0.0 90.0 xyz
   end
   begin
      id 21
      name RightHand_dum2
      direction -1.000000 0.000000 0.000000
      length 3.937000
      axis 0.0 0.0 90.0 xyz
   end
   begin
      id 22
      name RightHandThumb1
      direction 0.000000 0.000000 1.000000
      length 3.937000
      axis 0.0 0.0 90.0 xyz
      dof rx rz ry
   end
   begin
      id 23
      name LeftUpLeg
      direction 0.000000 -1.000000 0.000000
      length 16.757176
      axis 0.0 0.0 0.0 xyz
      dof rx ry rz
   end
   begin
      id 24
      name LeftLeg
      direction 0.000000 -1.000000 0.000000
      length 16.759153
      axis 0.0 0.0 0.0 xyz
      dof rx ry rz
   end
   begin
      id 25
      name LeftFoot
      direction 0.000000 -0.258819 0.965926
      length 5.841289
      axis 15.0 0.0 0.0 xyz
      dof rx ry rz
   end
   begin
      id 26
      name LeftToeBase
      direction 0.000000 0.000000 1.000000
      length 2.952750
      axis 0.0 0.0 0.0 xyz
      dof rx ry rz
   end
   begin
      id 27
      name RightUpLeg
      direction 0.000000 -1.000000 0.000000
      length 16.757176
      axis 0.0 0.0 0.0 xyz
      dof rx ry rz
   end
   begin
      id 28
      name RightLeg
      direction 0.000000 -1.000000 0.000000
      length 16.759153
      axis 0.0 0.0 0.0 xyz
      dof rx ry rz
   end
   begin
      id 29
      name RightFoot
      direction 0.000000 -0.258819 0.965926
      length 5.841289
      axis 15.0 0.0 0.0 xyz
      dof rx ry rz
   end
   begin
      id 30
      name RightToeBase
      direction 0.000000 0.000000 1.000000
      length 2.952750
      axis 0.0 0.0 0.0 xyz
      dof rx ry rz
   end
:hierarchy
   begin
      root Spine_dum LeftUpLeg_dum RightUpLeg_dum
      Spine_dum Spine
      LeftUpLeg_dum LeftUpLeg
      RightUpLeg_dum RightUpLeg
      Spine Spine_dum1 Spine_dum2 Spine_dum3
      Spine_dum1 Head
      Spine_dum2 LeftShoulder
      Spine_dum3 RightShoulder
      LeftShoulder LeftArm
      LeftArm LeftForeArm
      LeftForeArm LeftHand
      LeftHand LeftHand_dum1 LeftHand_dum2
      LeftHand_dum1 LeftHandThumb1
      RightShoulder RightArm
      RightArm RightForeArm
      RightForeArm RightHand
      RightHand RightHand_dum1 RightHand_dum2
      RightHand_dum1 RightHandThumb1
      LeftUpLeg LeftLeg
      LeftLeg LeftFoot
      LeftFoot LeftToeBase
      RightUpLeg RightLeg
      RightLeg RightFoot
      RightFoot RightToeBase
   end

# File created by Blade
# Date/Time:  Wed Jan 28 16:58:32 2015
# Frame Rate: 120.000 fps
#------------------------------------------------------
:FULLY-SPECIFIED
:DEGREES
2951
root 12.853381 35.880451 -19.322633 156.173815 -21.529330 -166.333953
Spine 41.721169 -5.846979 10.917987
Head 10.728508 5.066671 29.719485
LeftShoulder 2.026972 -6.056117 23.232810
LeftArm 78.703609 -4.664104 -59.528568
LeftForeArm -25.510214 -0.000000 44.649400
LeftHand 8.996590 -0.000000 11.755360
LeftHandThumb1 -26.253704 0.000000 33.147579
RightShoulder -9.224764 -2.274600 -2.555492
RightArm 19.431779 -23.384384 66.146383
RightForeArm -5.148528 -0.000000 29.283329
RightHand -11.662833 -0.000000 5.284779
RightHandThumb1 -24.326973 -0.000000 -32.862282
LeftUpLeg 10.944305 14.263320 13.104439
LeftLeg 24.466153 -0.000000 -0.000000
LeftFoot -19.129589 -4.718610 -7.841148
LeftToeBase 18.309065 -0.000000 -0.000000
RightUpLeg -95.127677 -1.846220 17.008892
RightLeg 125.080343 -0.000000 -0.000000
RightFoot 7.010964 -15.193751 7.813496
RightToeBase -0.779216 -0.000000 0.000000
2952
root 12.854796 35.891429 -19.319637 156.139277 -21.455833 -166.191674
Spine 41.692896 -5.796299 11.223510
Head 10.742452 5.121294 29.478058
LeftShoulder 1.998776 -6.292518 23.138098
LeftArm 78.751319 -4.484613 -59.480769
LeftForeArm -25.569596 -0.000000 44.259996
LeftHand 9.038972 0.000000 11.856173
LeftHandThumb1 -26.253704 0.000000 33.147579
RightShoulder -9.091140 -2.156051 -2.752113
RightArm 19.341131 -22.977048 65.982118
RightForeArm -4.546579 -0.000000 29.744121
RightHand -11.562591 -0.000000 5.405669
RightHandThumb1 -24.326973 -0.000000 -32.862282
LeftUpLeg 10.923713 14.206075 13.228966
LeftLeg 24.462084 -0.000000 -0.000000
LeftFoot -19.124889 -4.733658 -7.998834
LeftToeBase 18.478935 -0.000000 -0.000000
RightUpLeg -95.116738 -1.934500 17.131191
RightLeg 125.185497 -0.000000 -0.000000
RightFoot 6.858297 -15.546896 7.532752
RightToeBase -0.486481 -0.000000 0.000000
2953
root 12.884596 35.905128 -19.318230 156.109308 -21.302359 -166.086726
Spine 41.760033 -5.582585 11.377799
Head 10.698763 5.220036 29.463752
LeftShoulder 1.952937 -6.591914 23.217961
LeftArm 78.737063 -4.346313 -59.439103
LeftForeArm -25.661213 0.000000 43.896631
LeftHand 9.040122 -0.000000 11.880957
LeftHandThumb1 -26.253704 0.000000 33.147579
RightShoulder -8.917676 -2.123610 -2.749739
RightArm 19.361345 -22.631493 65.713473
RightForeArm -3.263046 0.000000 30.379088
RightHand -11.515081 -0.000000 4.468657
RightHandThumb1 -24.326973 -0.000000 -32.862282
LeftUpLeg 10.902564 14.352717 13.467755
LeftLeg 24.513441 -0.000000 -0.000000
LeftFoot -19.083614 -4.926971 -8.189197
LeftToeBase 18.752477 -0.000000 -0.000000
RightUpLeg -95.059565 -1.824906 17.257637
RightLeg 125.251338 -0.000000 -0.000000
RightFoot 6.812804 -15.807526 7.331004
RightToeBase -0.411067 -0.000000 0.000000
2954
root 12.904962 35.914038 -19.321548 156.098605 -21.259713 -166.000225
Spine 41.753707 -5.448266 11.464529
Head 10.686528 5.284783 29.472407
LeftShoulder 1.941512 -6.783888 23.312076
LeftArm 78.756935 -4.247221 -59.444745
LeftForeArm -25.747541 -0.000000 43.575124
LeftHand 9.037194 0.000000 11.821237
LeftHandThumb1 -26.253704 0.000000 33.147579
RightShoulder -8.754751 -2.179268 -2.687464
RightArm 19.386273 -22.176580 65.419056
RightForeArm -1.778648 0.000000 31.104488
RightHand -11.284624 0.000000 3.502104
RightHandThumb1 -24.326973 -0.000000 -32.862282
LeftUpLeg 10.870695 14.426997 13.629460
LeftLeg 24.525137 -0.000000 -0.000000
LeftFoot -19.097299 -5.113665 -8.440733
LeftToeBase 19.157646 -0.000000 -0.000000
RightUpLeg -95.079518 -1.840594 17.228987
RightLeg 125.367938 -0.000000 -0.000000
RightFoot 6.872845 -15.859035 7.480213
RightToeBase -0.789983 -0.000000 0.000000
2955
root 12.923800 35.922665 -19.326058 156.088983 -21.174012 -165.920554
Spine 41.754121 -5.246243 11.628293
Head 10.619872 5.303473 29.429725
LeftShoulder 2.023773 -7.264122 23.433067
LeftArm 78.460309 -4.035379 -59.633752
LeftForeArm -25.659803 0.000000 43.352300
LeftHand 9.076615 -0.000000 11.584000
LeftHandThumb1 -26.253704 0.000000 33.147579
RightShoulder -8.660116 -2.254171 -2.648397
RightArm 19.401128 -21.775345 65.072912
RightForeArm -0.364393 -0.000000 31.947888
RightHand -10.989313 -0.000000 2.919262
RightHandThumb1 -24.326973 -0.000000 -32.862282
LeftUpLeg 10.878783 14.585482 13.823035
LeftLeg 24.507506 -0.000000 -0.000000
LeftFoot -19.111273 -5.330996 -8.658045
LeftToeBase 19.536574 -0.000000 -0.000000
RightUpLeg -95.102780 -1.784088 17.310357
RightLeg 125.531846 -0.000000 -0.000000
RightFoot 6.937329 -15.877974 7.479147
RightToeBase -0.732686 -0.000000 0.000000
2956
root 12.928011 35.929998 -19.325147 156.107147 -21.161047 -165.906532
Spine 41.764232 -5.176102 11.670749
Head 10.542891 5.417949 29.333608
LeftShoulder 2.041183 -7.428946 23.488410
LeftArm 78.405029 -4.001667 -59.751273
LeftForeArm -25.652415 -0.000000 43.159894
LeftHand 9.111379 -0.000000 11.386281
LeftHandThumb1 -26.253704 0.000000 33.147579
RightShoulder -8.521656 -2.322352 -2.625623
RightArm 19.399111 -21.142627 64.894229
RightForeArm 0.706485 -0.000000 32.807993
RightHand -10.650329 0.000000 2.397637
RightHandThumb1 -24.326973 -0.000000 -32.862282
LeftUpLeg 10.899132 14.662325 13.872849
LeftLeg 24.422242 -0.000000 -0.000000
LeftFoot -19.108535 -5.446573 -8.816270
LeftToeBase 19.839031 -0.000000 -0.000000
RightUpLeg -95.183590 -1.794781 17.389757
RightLeg 125.745011 -0.000000 -0.000000
RightFoot 7.092841 -15.898768 7.473460
RightToeBase -0.764721 -0.000000 0.000000
2957
root 12.942338 35.940142 -19.328838 156.085371 -21.155757 -165.850957
Spine 41.811805 -5.090330 11.749189
Head 10.437548 5.489934 29.264231
LeftShoulder 2.117573 -7.623243 23.567021
LeftArm 78.319161 -3.999633 -59.857623
LeftForeArm -25.702429 -0.000000 42.988290
LeftHand 9.190471 0.000000 11.202116
LeftHandThumb1 -26.253704 0.000000 33.147579
RightShoulder -8.402086 -2.387402 -2.565573
RightArm 19.412047 -20.608019 64.660279
RightForeArm 2.020671 -0.000000 33.801144
RightHand -10.348104 -0.000000 1.564786
RightHandThumb1 -24.326973 -0.000000 -32.862282
LeftUpLeg 10.943840 14.759786 14.006257
LeftLeg 24.338440 -0.000000 -0.000000
LeftFoot -19.059270 -5.645726 -8.978966
LeftToeBase 20.079037 -0.000000 -0.000000
RightUpLeg -95.218084 -1.824178 17.576942
RightLeg 125.955378 -0.000000 -0.000000
RightFoot 7.111732 -16.020874 7.369787
RightToeBase -0.388506 -0.000000 0.000000
2958
root 12.955224 35.948591 -19.327732 156.098492 -21.174589 -165.831995
Spine 41.857176 -5.026816 11.762025
Head 10.296241 5.606611 29.206685
LeftShoulder 2.168160 -7.760891 23.624033
LeftArm 78.285689 -4.042851 -59.855672
LeftForeArm -25.802807 -0.000000 42.828680
LeftHand 9.236190 -0.000000 11.093011
LeftHandThumb1 -26.253704 0.000000 33.147579
RightShoulder -8.308502 -2.528416 -2.497789
RightArm 19.652895 -20.186928 64.298022
RightForeArm 3.603691 0.000000 34.739015
RightHand -9.906071 -0.000000 0.894414
RightHandThumb1 -24.326973 -0.000000 -32.862282
LeftUpLeg 10.954768 14.794535 14.058481
LeftLeg 24.252139 -0.000000 -0.000000
LeftFoot -19.015280 -5.766418 -9.093460
LeftToeBase 20.263143 -0.000000 -0.000000
RightUpLeg -95.296039 -1.817547 17.716049
RightLeg 126.175485 -0.000000 -0.000000
RightFoot 7.235708 -16.069010 7.454039
RightToeBase -0.515461 -0.000000 0.000000
2959
root 12.966037 35.956572 -19.326581 156.109210 -21.189689 -165.823466
Spine 41.916748 -4.998422 11.753232
Head 10.162309 5.725617 29.129872
LeftShoulder 2.197958 -7.866511 23.635004
LeftArm 78.269975 -4.121206 -59.761570
LeftForeArm -25.888895 0.000000 42.684369
LeftHand 9.241252 0.000000 11.106039
LeftHandThumb1 -26.253704 0.000000 33.147579
RightShoulder -8.162013 -2.571553 -2.418260
RightArm 19.689189 -19.632022 64.046241
RightForeArm 4.786746 0.000000 35.867933
RightHand -9.294443 0.000000 0.313104
RightHandThumb1 -24.326973 -0.000000 -32.862282
LeftUpLeg 10.981367 14.799028 14.085565
LeftLeg 24.147394 -0.000000 -0.000000
LeftFoot -18.968946 -5.831503 -9.174011
LeftToeBase 20.423924 -0.000000 -0.000000
RightUpLeg -95.376181 -1.768978 17.916803
RightLeg 126.399346 -0.000000 -0.000000
RightFoot 7.357425 -16.076497 7.399945
RightToeBase -0.557526 -0.000000 0.000000
2960
root 12.975058 35.960942 -19.316616 156.163402 -21.295604 -165.907291
Spine 42.010053 -5.015506 11.520620
Head 10.022122 5.917305 29.180216
LeftShoulder 2.151088 -7.945112 23.706408
LeftArm 78.290638 -4.226557 -59.616182
LeftForeArm -25.943888 -0.000000 42.551493
LeftHand 9.290328 0.000000 11.174442
LeftHandThumb1 -26.253704 0.000000 33.147579
RightShoulder -7.958696 -2.491574 -2.254685
RightArm 19.639708 -19.055829 63.879554
RightForeArm 5.926519 -0.000000 37.160601
RightHand -8.861341 -0.000000 -0.282585
RightHandThumb1 -24.326973 -0.000000 -32.862282
LeftUpLeg 10.942694 14.704656 13.946519
LeftLeg 24.071300 -0.000000 -0.000000
LeftFoot -18.876770 -5.794502 -9.174411
LeftToeBase 20.380816 -0.000000 -0.000000
RightUpLeg -95.507073 -1.745862 17.955462
RightLeg 126.672637 -0.000000 -0.000000
RightFoot 7.342933 -15.986363 7.625569
RightToeBase -0.139863 -0.000000 0.000000
2961
root 12.988604 35.967623 -19.311126 156.191776 -21.327516 -165.919203
Spine 42.095152 -5.044770 11.449291
Head 9.868427 6.066003 29.106613
LeftShoulder 2.117966 -8.020457 23.678186
LeftArm 78.318725 -4.325891 -59.445243
LeftForeArm -25.959323 -0.000000 42.430293
LeftHand 9.296464 -0.000000 11.339094
LeftHandThumb1 -26.253704 0.000000 33.147579
RightShoulder -7.740557 -2.430146 -2.204361
RightArm 19.570344 -18.319413 63.848934
RightForeArm 7.178266 -0.000000 38.512737
RightHand -8.494840 0.000000 -0.692819
RightHandThumb1 -24.326973 -0.000000 -32.862282
LeftUpLeg 10.910278 14.686517 13.928952
LeftLeg 24.029624 -0.000000 -0.000000
LeftFoot -18.801078 -5.784442 -9.163982
LeftToeBase 20.340262 -0.000000 -0.000000
RightUpLeg -95.597640 -1.686381 18.181555
RightLeg 126.918046 -0.000000 -0.000000
RightFoot 7.535133 -15.820383 7.330279
RightToeBase -0.122107 -0.000000 0.000000
2962
root 13.005432 35.975907 -19.310040 156.187416 -21.325790 -165.868115
Spine 42.185451 -5.134762 11.459622
Head 9.747138 6.221319 28.960270
LeftShoulder 2.066337 -8.034160 23.599945
LeftArm 78.369894 -4.448176 -59.258939
LeftForeArm -26.071416 -0.000000 42.354830
LeftHand 9.269543 -0.000000 11.613460
LeftHandThumb1 -26.253704 0.000000 33.147579
RightShoulder -7.489114 -2.335743 -2.243089
RightArm 19.548779 -17.716942 63.782773
RightForeArm 8.617139 -0.000000 39.857072
RightHand -8.038826 0.000000 -1.024831
RightHandThumb1 -24.326973 -0.000000 -32.862282
LeftUpLeg 10.883704 14.663474 13.993114
LeftLeg 24.014245 -0.000000 -0.000000
LeftFoot -18.730041 -5.826000 -9.207399
LeftToeBase 20.275258 -0.000000 -0.000000
RightUpLeg -95.657915 -1.595475 18.472632
RightLeg 127.168222 -0.000000 -0.000000
RightFoot 7.769389 -15.580104 7.073856
RightToeBase -0.467545 -0.000000 0.000000
2963
root 13.026739 35.983860 -19.308076 156.187259 -21.304896 -165.787161
Spine 42.251951 -5.216537 11.510802
Head 9.641256 6.321825 28.846061
LeftShoulder 2.035252 -8.054012 23.555777
LeftArm 78.370498 -4.557031 -59.163958
LeftForeArm -26.154286 -0.000000 42.343597
LeftHand 9.212058 -0.000000 11.794511
LeftHandThumb1 -26.253704 0.000000 33.147579
RightShoulder -7.272662 -2.325063 -2.282909
RightArm 19.707338 -17.247816 63.592495
RightForeArm 10.366493 0.000000 41.192511
RightHand -7.434855 -0.000000 -1.098079
RightHandThumb1 -24.326973 -0.000000 -32.862282
LeftUpLeg 10.826034 14.670366 14.105069
LeftLeg 24.025264 -0.000000 -0.000000
LeftFoot -18.636632 -5.821908 -9.106313
LeftToeBase 20.108137 -0.000000 -0.000000
RightUpLeg -95.748548 -1.452099 18.942868
RightLeg 127.356676 -0.000000 -0.000000
RightFoot 8.034395 -15.614444 6.750711
RightToeBase -0.365685 -0.000000 0.000000
